<?xml version="1.0" standalone="no"?>
<!DOCTYPE svg PUBLIC "-//W3C//DTD SVG 20010904//EN"
 "http://www.w3.org/TR/2001/REC-SVG-20010904/DTD/svg10.dtd">
<svg version="1.0" xmlns="http://www.w3.org/2000/svg"
 width="2560.000000pt" height="748.000000pt" viewBox="0 0 2560.000000 748.000000"
 preserveAspectRatio="xMidYMid meet">

<g transform="translate(0.000000,748.000000) scale(0.100000,-0.100000)"
fill="#000000" stroke="none">
<path d="M3658 4653 l-3 -2528 -26 -95 c-188 -679 -941 -988 -1543 -632 -99
59 -247 198 -315 297 -141 204 -207 453 -181 690 15 139 41 230 105 360 101
208 262 369 470 470 154 76 238 96 415 102 134 5 271 -9 335 -33 13 -5 15 68
15 619 l0 624 -47 7 c-245 33 -615 4 -868 -69 -783 -227 -1382 -837 -1580
-1610 -54 -212 -69 -332 -69 -570 -1 -367 62 -651 213 -970 118 -248 250 -434
446 -630 544 -545 1307 -774 2063 -619 962 197 1696 1015 1791 1998 7 71 11
568 11 1413 0 717 2 1303 6 1303 3 0 31 -17 62 -38 172 -115 428 -247 615
-316 284 -105 579 -166 895 -182 l132 -7 0 611 0 611 -52 5 c-29 3 -87 8 -128
11 -449 37 -908 298 -1192 677 -207 276 -338 643 -338 947 l0 81 -615 0 -615
0 -2 -2527z"/>
<path d="M7940 4880 l0 -410 475 0 475 0 0 -1555 0 -1555 480 0 480 0 0 1545
0 1545 388 0 388 0 128 403 c71 221 131 410 133 420 5 16 -70 17 -1471 17
l-1476 0 0 -410z"/>
<path d="M11419 5272 c-165 -43 -290 -170 -334 -339 -66 -253 109 -516 375
-564 138 -24 290 22 395 122 270 255 147 698 -217 784 -81 19 -137 18 -219 -3z"/>
<path d="M12400 3325 l0 -1965 468 2 467 3 3 506 2 507 123 113 c67 62 131
121 143 131 20 18 25 11 475 -632 l454 -650 498 0 c273 0 497 2 497 5 0 2
-293 428 -651 946 -450 651 -649 946 -643 955 5 7 267 264 583 571 l574 558
-562 3 -563 2 -461 -456 -462 -456 -3 911 -2 911 -470 0 -470 0 0 -1965z"/>
<path d="M15760 4880 l0 -410 475 0 475 0 0 -1555 0 -1555 480 0 480 0 0 1545
0 1545 388 0 388 0 128 403 c71 221 131 410 133 420 5 16 -70 17 -1471 17
l-1476 0 0 -410z"/>
<path d="M22470 3325 l0 -1965 465 0 465 0 0 509 0 508 143 131 c132 121 143
129 158 114 9 -9 215 -302 458 -649 l442 -633 500 0 500 0 -64 93 c-133 191
-1234 1784 -1240 1794 -4 7 238 250 577 580 l584 568 -567 3 -566 2 -462 -462
-463 -463 0 918 0 917 -465 0 -465 0 0 -1965z"/>
<path d="M20100 4553 c-84 -9 -257 -46 -339 -73 -421 -137 -794 -471 -971
-868 -61 -136 -103 -277 -125 -417 -23 -148 -16 -438 14 -573 145 -653 646
-1134 1308 -1258 192 -35 682 -29 878 12 559 116 1026 528 1205 1061 63 190
74 265 74 513 1 196 -2 238 -21 323 -74 326 -211 576 -442 808 -274 274 -593
426 -983 468 -89 10 -516 13 -598 4z m405 -853 c436 -139 665 -588 517 -1009
-42 -118 -87 -186 -192 -291 -81 -81 -109 -103 -190 -143 -138 -68 -198 -82
-365 -82 -119 0 -151 4 -215 23 -270 85 -466 282 -542 548 -18 63 -23 104 -23
204 0 145 15 213 74 335 104 217 278 359 526 426 99 27 309 21 410 -11z"/>
<path d="M11070 2695 l0 -1335 465 0 465 0 0 1335 0 1335 -465 0 -465 0 0
-1335z"/>
</g>
</svg>
